<svg xmlns="http://www.w3.org/2000/svg" x="0px" y="0px"
width="18" height="18"
viewBox="0 0 172 172"
style=" fill:#000000;"><g fill="none" fill-rule="nonzero" stroke="none" stroke-width="1" stroke-linecap="butt" stroke-linejoin="miter" stroke-miterlimit="10" stroke-dasharray="" stroke-dashoffset="0" font-family="none" font-weight="none" font-size="none" text-anchor="none" style="mix-blend-mode: normal"><path d="M0,172v-172h172v172z" fill="none"></path><g fill="#000000"><path d="M131.86667,17.2c-0.24333,-0.00053 -0.48644,0.01443 -0.72786,0.04479l-0.12318,0.0224c-0.0561,0.00664 -0.11209,0.0141 -0.16796,0.0224l-74.33177,11.43307c-2.8225,0.40658 -4.91717,2.82571 -4.91589,5.67734v75.74271c0,6.81693 -0.78027,10.25729 -14.31094,10.25729c-14.94107,0 -20.08906,8.71933 -20.08906,17.24479c0,6.9316 4.04773,17.2 20.06667,17.2c17.9396,0 25.8,-10.99214 25.8,-20.72734v-74.26458l63.06667,-10.27969v49.10287c0,6.81693 -0.78027,10.26849 -14.31094,10.26849c-14.94107,-0.00573 -20.08906,8.70813 -20.08906,17.23359c0,6.9316 4.04773,17.2 20.06667,17.2c17.9396,0 25.8,-12.07834 25.8,-21.81354v-98.63125c0,-3.16643 -2.5669,-5.73333 -5.73333,-5.73333z"></path></g></g></svg>