<svg xmlns="http://www.w3.org/2000/svg" x="0px" y="0px"
width="18" height="18"
viewBox="0 0 172 172"
style=" fill:#000000;"><g fill="none" fill-rule="nonzero" stroke="none" stroke-width="1" stroke-linecap="butt" stroke-linejoin="miter" stroke-miterlimit="10" stroke-dasharray="" stroke-dashoffset="0" font-family="none" font-weight="none" font-size="none" text-anchor="none" style="mix-blend-mode: normal"><path d="M0,172v-172h172v172z" fill="none"></path><g fill="#000000"><path d="M155.11354,23.03411l-37.1211,7.95052c-5.28613,1.12947 -9.05911,5.80258 -9.05911,11.20911v65.09349c0,11.17427 -34.4,1.83252 -34.4,33.05625c0,5.73333 3.45604,20.17864 19.8763,20.17864c20.18133,0.00573 25.99036,-15.33398 25.99036,-32.36198v-67.7474l34.85911,-7.64817c3.0788,-0.67653 5.27422,-3.40291 5.27422,-6.56198v-18.7901c0,-2.8552 -2.63339,-4.98039 -5.41979,-4.37839zM22.93333,34.4c-3.1648,0 -5.73333,2.56853 -5.73333,5.73333c0,3.1648 2.56853,5.73333 5.73333,5.73333h68.8c3.1648,0 5.73333,-2.56853 5.73333,-5.73333c0,-3.1648 -2.56853,-5.73333 -5.73333,-5.73333zM22.93333,63.06667c-3.1648,0 -5.73333,2.56853 -5.73333,5.73333c0,3.1648 2.56853,5.73333 5.73333,5.73333h68.8c3.1648,0 5.73333,-2.56853 5.73333,-5.73333c0,-3.1648 -2.56853,-5.73333 -5.73333,-5.73333zM22.93333,91.73333c-3.1648,0 -5.73333,2.56853 -5.73333,5.73333c0,3.1648 2.56853,5.73333 5.73333,5.73333h68.8c3.1648,0 5.73333,-2.56853 5.73333,-5.73333c0,-3.1648 -2.56853,-5.73333 -5.73333,-5.73333zM22.93333,120.4c-3.1648,0 -5.73333,2.56853 -5.73333,5.73333c0,3.1648 2.56853,5.73333 5.73333,5.73333h40.90599c0.83133,-4.51213 2.30668,-8.30187 4.22161,-11.46667z"></path></g></g></svg>