<svg xmlns="http://www.w3.org/2000/svg" x="0px" y="0px"
width="30" height="30"
viewBox="0 0 172 172"
style=" fill:#000000;"><g fill="none" fill-rule="nonzero" stroke="none" stroke-width="1" stroke-linecap="butt" stroke-linejoin="miter" stroke-miterlimit="10" stroke-dasharray="" stroke-dashoffset="0" font-family="none" font-weight="none" font-size="none" text-anchor="none" style="mix-blend-mode: normal"><path d="M0,172v-172h172v172z" fill="none"></path><g fill="#000000"><path d="M43,34.4c-4.7472,0 -8.6,3.8528 -8.6,8.6v86c0,4.7472 3.8528,8.6 8.6,8.6c4.7472,0 8.6,-3.8528 8.6,-8.6v-86c0,-4.7472 -3.8528,-8.6 -8.6,-8.6zM131.86667,34.4c-1.22522,-0.00006 -2.41824,0.39238 -3.40417,1.11979c-0.05297,0.04015 -0.10523,0.08121 -0.15677,0.12318l-62.59635,45.51953c-0.00373,0.00374 -0.00746,0.00747 -0.0112,0.0112l-0.08958,0.06719c-1.58744,1.06366 -2.54063,2.84827 -2.54192,4.75911c0.00128,1.92516 0.96869,3.72117 2.57552,4.78151l62.82031,45.6987c0.98592,0.72741 2.17894,1.11985 3.40417,1.11979c3.16643,0 5.73333,-2.5669 5.73333,-5.73333c0.00001,-0.00746 0.00001,-0.01493 0,-0.02239v-45.84427v-45.84427c0.00001,-0.00747 0.00001,-0.01493 0,-0.0224c0,-3.16643 -2.5669,-5.73333 -5.73333,-5.73333z"></path></g></g></svg>