<svg xmlns="http://www.w3.org/2000/svg" x="0px" y="0px"
width="30" height="30"
viewBox="0 0 172 172"
style=" fill:#000000;"><g fill="none" fill-rule="nonzero" stroke="none" stroke-width="1" stroke-linecap="butt" stroke-linejoin="miter" stroke-miterlimit="10" stroke-dasharray="" stroke-dashoffset="0" font-family="none" font-weight="none" font-size="none" text-anchor="none" style="mix-blend-mode: normal"><path d="M0,172v-172h172v172z" fill="none"></path><g fill="#000000"><path d="M120.4,28.66667v17.2h-13.32552c-11.49724,0 -22.24261,5.75673 -28.62187,15.31875l-9.65261,14.47891l-9.65261,-14.47891c-6.37447,-9.55828 -17.12463,-15.31875 -28.62187,-15.31875h-13.32552c-2.06765,-0.02924 -3.99087,1.05709 -5.03322,2.843c-1.04236,1.78592 -1.04236,3.99474 0,5.78066c1.04236,1.78592 2.96558,2.87225 5.03322,2.843h13.32552c7.67502,0 14.82613,3.83211 19.08125,10.2125l12.30651,18.45417l-12.30651,18.45417c-4.25512,6.38039 -11.40623,10.2125 -19.08125,10.2125h-13.32552c-2.06765,-0.02924 -3.99087,1.05709 -5.03322,2.843c-1.04236,1.78592 -1.04236,3.99474 0,5.78066c1.04236,1.78592 2.96558,2.87225 5.03322,2.843h13.32552c11.49724,0 22.2474,-5.76047 28.62187,-15.31875l9.65261,-14.47891l9.65261,14.47891c6.37926,9.56202 17.12463,15.31875 28.62187,15.31875h13.32552v17.2l34.4,-22.93333l-34.4,-22.93333v17.2h-13.32552c-7.67502,0 -14.81945,-3.82439 -19.08125,-10.2125l-12.30651,-18.45417l12.30651,-18.45417c4.2618,-6.38811 11.40623,-10.2125 19.08125,-10.2125h13.32552v17.2l34.4,-22.93333z"></path></g></g></svg>