<svg xmlns="http://www.w3.org/2000/svg" x="0px" y="0px"
width="30" height="30"
viewBox="0 0 172 172"
style=" fill:#000000;"><g fill="none" fill-rule="nonzero" stroke="none" stroke-width="1" stroke-linecap="butt" stroke-linejoin="miter" stroke-miterlimit="10" stroke-dasharray="" stroke-dashoffset="0" font-family="none" font-weight="none" font-size="none" text-anchor="none" style="mix-blend-mode: normal"><path d="M0,172v-172h172v172z" fill="#fcdbcc"></path><g fill="#f5c19b"><path d="M114.66667,22.93333v17.2h-68.8c-18.92932,0 -34.4,15.47068 -34.4,34.4c-0.02924,2.06765 1.05709,3.99087 2.843,5.03322c1.78592,1.04236 3.99474,1.04236 5.78066,0c1.78592,-1.04236 2.87225,-2.96558 2.843,-5.03322c0,-12.73015 10.20319,-22.93333 22.93333,-22.93333h68.8v17.2l40.13333,-22.93333zM154.71042,91.65495c-3.16203,0.04943 -5.68705,2.6496 -5.64375,5.81172c0,12.73015 -10.20318,22.93333 -22.93333,22.93333h-68.8v-17.2l-40.13333,22.93333l40.13333,22.93333v-17.2h68.8c18.92932,0 34.4,-15.47068 34.4,-34.4c0.02122,-1.54972 -0.58581,-3.04203 -1.68279,-4.1369c-1.09698,-1.09487 -2.59045,-1.69903 -4.14013,-1.67482z"></path></g></g></svg>