<svg xmlns="http://www.w3.org/2000/svg" x="0px" y="0px"
width="30" height="30"
viewBox="0 0 172 172"
style=" fill:#000000;"><g fill="none" fill-rule="nonzero" stroke="none" stroke-width="1" stroke-linecap="butt" stroke-linejoin="miter" stroke-miterlimit="10" stroke-dasharray="" stroke-dashoffset="0" font-family="none" font-weight="none" font-size="none" text-anchor="none" style="mix-blend-mode: normal"><path d="M0,172v-172h172v172z" fill="none"></path><g fill="#000000"><path d="M86,17.2c-17.50875,0 -33.4855,6.62414 -45.64271,17.42396l-11.69062,-11.69062v34.4h34.4l-14.59089,-14.59089c10.05879,-8.73791 23.12223,-14.07578 37.52422,-14.07578c31.73133,0 57.33333,25.60201 57.33333,57.33333c0,31.73133 -25.60201,57.33333 -57.33333,57.33333c-31.73133,0 -57.33333,-25.60201 -57.33333,-57.33333c0.02924,-2.06765 -1.05709,-3.99087 -2.843,-5.03322c-1.78592,-1.04236 -3.99474,-1.04236 -5.78066,0c-1.78592,1.04236 -2.87225,2.96558 -2.843,5.03322c0,37.92867 30.87133,68.8 68.8,68.8c37.92867,0 68.8,-30.87133 68.8,-68.8c0,-37.92867 -30.87133,-68.8 -68.8,-68.8zM101.40833,65.07109c-10.41173,0 -16.96484,7.80486 -16.96484,21.18646c0,13.3816 6.46137,21.38229 16.96484,21.38802c10.46907,0 16.96484,-8.03016 16.96484,-21.35443c0,-13.43893 -6.57604,-21.22005 -16.96484,-21.22005zM63.83933,66.15729l-10.26849,6.9987v8.84635l9.74219,-6.58437h0.5263v31.14141h10.27968v-40.40209zM101.40833,72.96562c3.9216,0.00001 6.55078,4.41673 6.55078,13.29193c0,8.93253 -2.62918,13.49349 -6.55078,13.49349c-3.9216,0 -6.52839,-4.56096 -6.52839,-13.49349c0,-8.8752 2.60679,-13.29193 6.52839,-13.29193z"></path></g></g></svg>